<svg xmlns="http://www.w3.org/2000/svg" xmlns:xlink="http://www.w3.org/1999/xlink" viewBox="0,0,256,256" width="24px" height="24px"><g fill="#ffffff" fill-rule="nonzero" stroke="none" stroke-width="1" stroke-linecap="butt" stroke-linejoin="miter" stroke-miterlimit="10" stroke-dasharray="" stroke-dashoffset="0" font-family="none" font-weight="none" font-size="none" text-anchor="none" style="mix-blend-mode: normal"><g transform="scale(10.66667,10.66667)"><path d="M19.9,13.3c0.1,-0.5 0.1,-0.9 0.1,-1.3c0,-0.4 0,-0.8 -0.1,-1.3l1.9,-1.7l-2.3,-4l-2.4,0.8c-0.7,-0.5 -1.4,-1 -2.2,-1.3l-0.6,-2.5h-4.6l-0.5,2.5c-0.9,0.3 -1.6,0.8 -2.3,1.3l-2.4,-0.8l-2.3,4l1.9,1.7c-0.1,0.5 -0.1,0.9 -0.1,1.3c0,0.4 0,0.8 0.1,1.3l-1.9,1.7l2.3,4l2.4,-0.8v0c0.7,0.5 1.4,1 2.2,1.3l0.6,2.5h4.7l0.5,-2.5c0.8,-0.3 1.6,-0.7 2.2,-1.3v0l2.4,0.8l2.3,-4l-1.9,-1.7zM12,16c-2.2,0 -4,-1.8 -4,-4c0,-2.2 1.8,-4 4,-4c2.2,0 4,1.8 4,4c0,2.2 -1.8,4 -4,4z"></path></g></g></svg>